<svg xmlns="http://www.w3.org/2000/svg" width="700" height="430" viewBox="0 0 700 430" font-family="Helvetica, Arial, sans-serif">
  <rect x="0" y="0" width="700" height="430" fill="none"/>
  <defs>
    <filter id="cardShadow" x="-10%" y="-10%" width="120%" height="130%">
      <feDropShadow dx="0" dy="1" stdDeviation="3" flood-color="#000000" flood-opacity="0.08"/>
    </filter>
  </defs>

  <!-- Row 1 -->
  <rect x="0" y="0" width="326" height="90" rx="10" fill="#ffffff" />
  <text x="20" y="32" font-size="14" font-weight="600" fill="#4169E1">Frontend</text>
  <text x="20" y="58" font-size="12" fill="#444444">React, Angular, Next.js, Bootstrap,</text>
  <text x="20" y="76" font-size="12" fill="#444444">MUI, shadcn/ui, Chart.js</text>

  <rect x="342" y="0" width="358" height="90" rx="10" fill="#ffffff" />
  <text x="362" y="32" font-size="14" font-weight="600" fill="#4169E1">Languages</text>
  <text x="362" y="58" font-size="12" fill="#444444">TypeScript, JavaScript, HTML5, CSS3</text>

  <!-- Row 2 -->
  <rect x="0" y="106" width="326" height="90" rx="10" fill="#ffffff" />
  <text x="20" y="138" font-size="14" font-weight="600" fill="#4169E1">Backend</text>
  <text x="20" y="164" font-size="12" fill="#444444">Node.js, Express.js, Socket.io</text>

  <rect x="342" y="106" width="358" height="90" rx="10" fill="#ffffff" />
  <text x="362" y="138" font-size="14" font-weight="600" fill="#4169E1">Database</text>
  <text x="362" y="164" font-size="12" fill="#444444">MySQL, MariaDB, Microsoft SQL</text>
  <text x="362" y="182" font-size="12" fill="#444444">Server, Hive</text>

  <!-- Row 3 -->
  <rect x="0" y="212" width="326" height="90" rx="10" fill="#ffffff" />
  <text x="20" y="244" font-size="14" font-weight="600" fill="#4169E1">Mobile</text>
  <text x="20" y="270" font-size="12" fill="#444444">Ionic, Capacitor</text>

  <rect x="342" y="212" width="358" height="90" rx="10" fill="#ffffff" />
  <text x="362" y="244" font-size="14" font-weight="600" fill="#4169E1">Desktop</text>
  <text x="362" y="270" font-size="12" fill="#444444">Electron</text>

  <!-- Row 4 -->
  <rect x="0" y="318" width="700" height="90" rx="10" fill="#ffffff" />
  <text x="20" y="350" font-size="14" font-weight="600" fill="#4169E1">Tools</text>
  <text x="20" y="376" font-size="12" fill="#444444">Vite, Postman, Nodemon</text>
</svg>